<svg width="36" height="35" viewBox="0 0 36 35" fill="none" xmlns="http://www.w3.org/2000/svg">
<g clip-path="url(#clip0_2029_3)">
<path d="M18.0046 10.3925C18.449 10.3925 19.3057 9.86827 20.5512 8.83414C21.4114 8.12005 22.4866 7.1196 22.9244 6.45381C23.2563 5.94922 23.6303 5.2395 23.5759 4.22263C23.4855 2.5322 22.1215 1.20801 20.4708 1.20801C19.294 1.20801 18.4688 2.07647 18.0118 2.57442C17.5781 2.08435 16.7457 1.20801 15.5292 1.20801C13.8786 1.20801 12.5147 2.5322 12.4242 4.22273C12.3691 5.25287 12.7697 5.98964 13.0759 6.45419C13.7524 7.48101 17.0206 10.3925 18.0046 10.3925Z" fill="#F5F4F2"/>
<path d="M24.4048 11.6013C22.021 11.6013 19.8105 12.3572 18 13.6414C16.1896 12.3571 13.9791 11.6013 11.5953 11.6013C5.47738 11.6013 0.5 16.5787 0.5 22.6966C0.5 28.8144 5.47738 33.7918 11.5952 33.7918C13.979 33.7918 16.1895 33.0361 18 31.7517C19.8104 33.0361 22.0209 33.7918 24.4047 33.7918C30.5226 33.7918 35.4999 28.8145 35.4999 22.6966C35.4999 16.5786 30.5226 11.6013 24.4048 11.6013ZM18 27.8884C16.8478 26.4696 16.156 24.6624 16.156 22.6966C16.156 20.7307 16.8477 18.9234 18 17.5047C19.1523 18.9234 19.8441 20.7306 19.8441 22.6966C19.8441 24.6625 19.1523 26.4697 18 27.8884ZM3.34649 22.6966C3.34649 18.1482 7.04693 14.4477 11.5952 14.4477C13.1523 14.4477 14.6098 14.8815 15.8536 15.6343C14.2652 17.5543 13.3095 20.0158 13.3095 22.6965C13.3095 25.3771 14.2652 27.8387 15.8536 29.7586C14.6098 30.5114 13.1523 30.9452 11.5952 30.9452C7.04693 30.9453 3.34649 27.245 3.34649 22.6966ZM24.4048 30.9453C22.8478 30.9453 21.3902 30.5115 20.1464 29.7587C21.7348 27.8388 22.6905 25.3772 22.6905 22.6966C22.6905 20.0159 21.7348 17.5543 20.1464 15.6344C21.3902 14.8816 22.8477 14.4478 24.4048 14.4478C28.9532 14.4478 32.6535 18.1483 32.6535 22.6967C32.6535 27.2451 28.9531 30.9453 24.4048 30.9453Z" fill="#F5F4F2"/>
</g>
<defs>
<clipPath id="clip0_2029_3">
<rect width="35" height="35" fill="white" transform="translate(0.5)"/>
</clipPath>
</defs>
</svg>
