<svg width="124" height="50" viewBox="0 0 124 50" fill="none" xmlns="http://www.w3.org/2000/svg">
<path d="M55.4746 0.53572C55.496 0.497172 55.5515 0.493066 55.598 0.526567C55.6494 0.563569 55.6341 0.59108 55.5591 0.596647C55.4912 0.601411 55.4531 0.574274 55.4746 0.53572ZM3.2608 11.8966C3.30509 11.8644 3.37756 11.8644 3.42185 11.8966C3.46614 11.9287 3.42988 11.9551 3.34133 11.9551C3.25275 11.9551 3.21651 11.9287 3.2608 11.8966ZM3.01923 11.8574C3.01923 11.7936 3.03201 11.7414 3.04764 11.7414C3.06327 11.7414 3.09396 11.7935 3.11586 11.8574C3.13776 11.9212 3.12498 11.9734 3.08745 11.9734C3.04992 11.9734 3.01923 11.9212 3.01923 11.8574ZM3.64609 12.0133C3.68971 11.9815 3.77667 11.9795 3.83935 12.0091C3.90203 12.0385 3.86634 12.0645 3.76005 12.0669C3.65376 12.0692 3.60248 12.045 3.64609 12.0133ZM4.51833 12.1353C4.53974 12.0967 4.5953 12.0926 4.6418 12.1261C4.69319 12.1631 4.67793 12.1906 4.60288 12.1962C4.53497 12.2009 4.49692 12.1738 4.51833 12.1353ZM121.23 44.8001C121.23 44.7363 121.259 44.6841 121.294 44.6841C121.33 44.6841 121.359 44.7363 121.359 44.8001C121.359 44.8639 121.33 44.9161 121.294 44.9161C121.259 44.9161 121.23 44.864 121.23 44.8001ZM120.908 44.9127C120.908 44.7466 121.005 44.6936 121.104 44.806C121.156 44.8646 121.183 44.9174 121.165 44.9232C121.148 44.9292 121.083 44.9514 121.021 44.9727C120.959 44.9941 120.908 44.9668 120.908 44.9127ZM120.457 45.6158C120.457 45.554 120.5 45.5334 120.553 45.5702C120.607 45.6069 120.65 45.6575 120.65 45.6825C120.65 45.7076 120.607 45.7281 120.553 45.7281C120.5 45.7281 120.457 45.6775 120.457 45.6158ZM120.682 46.4241C120.577 46.3428 120.574 46.3229 120.663 46.3162C120.722 46.3121 120.789 46.3603 120.811 46.4241C120.857 46.5575 120.855 46.5575 120.682 46.4241ZM120.16 46.4048C120.142 46.3516 120.171 46.3081 120.224 46.3081C120.277 46.3081 120.335 46.3516 120.354 46.4048C120.372 46.4579 120.343 46.5014 120.29 46.5014C120.237 46.5014 120.179 46.4579 120.16 46.4048ZM12.0952 48.2297C12.0815 48.2059 11.2585 48.1518 10.2665 48.1096C9.2744 48.0674 8.33226 48.0127 8.17282 47.9881C8.01338 47.9634 7.49158 47.9115 7.01327 47.8726C6.53495 47.8337 6.08609 47.7716 6.01581 47.7346C5.75464 47.5969 6.12874 47.4893 6.49972 47.5953C6.69359 47.6508 7.50447 47.7281 8.30167 47.7672C10.115 47.8562 10.3257 47.8768 10.4128 47.9736C10.4514 48.0166 10.499 48.0053 10.5186 47.9483C10.5509 47.854 11.0235 47.8645 11.6837 47.9742C11.8254 47.9978 12.1709 48.024 12.4514 48.0325C12.7319 48.041 12.9493 48.0668 12.9345 48.0897C12.8947 48.1518 12.1242 48.2803 12.0952 48.2297ZM16.5796 48.28C16.5577 48.2162 16.585 48.164 16.6403 48.164C16.6955 48.164 16.7407 48.2162 16.7407 48.28C16.7407 48.3438 16.7134 48.396 16.6801 48.396C16.6467 48.396 16.6015 48.3438 16.5796 48.28ZM15.3241 48.2893C15.083 48.1732 15.2485 48.0772 15.6133 48.1215C15.7905 48.1429 16.0472 48.1645 16.1838 48.1694C16.3204 48.1741 16.4167 48.206 16.3978 48.2401C16.3441 48.3368 15.5029 48.3754 15.3241 48.2893ZM14.2746 48.3249C14.2669 48.311 14.035 48.2763 13.7594 48.2477C13.4837 48.2192 13.2396 48.1623 13.2169 48.1214C13.1941 48.0805 13.5211 48.078 13.9435 48.116C14.3659 48.154 14.7202 48.2004 14.7309 48.2192C14.7415 48.238 14.6464 48.2751 14.5195 48.3018C14.3926 48.3285 14.2824 48.3389 14.2746 48.3249ZM17.6426 48.3908C17.1642 48.3561 16.8599 48.3089 16.9662 48.2859C17.3488 48.2033 19.068 48.2175 19.1436 48.304C19.1994 48.3678 19.194 48.3969 19.1242 48.4085C18.8559 48.4533 18.4318 48.4481 17.6426 48.3908ZM20.0583 48.515C19.6331 48.4815 19.32 48.4134 19.3626 48.3637C19.4051 48.3141 19.55 48.2792 19.6847 48.2862C19.8193 48.2931 20.2723 48.2903 20.6913 48.2789C21.1103 48.268 21.4703 48.2898 21.4912 48.3274C21.6192 48.5579 21.2366 48.6081 20.0583 48.515ZM6.30465 13.7064C6.30465 13.6388 6.27567 13.6158 6.24023 13.6552C6.20479 13.6947 6.1758 13.7499 6.1758 13.7781C6.1758 13.8062 6.20478 13.8292 6.24023 13.8292C6.27565 13.8292 6.30465 13.774 6.30465 13.7064ZM119.971 13.9302C120.024 13.8358 119.635 13.7174 119.426 13.7639C119.143 13.8267 119.131 13.8581 119.362 13.9315C119.652 14.0237 119.92 14.0229 119.971 13.9302ZM2.21111 16.6215C2.23143 16.5623 2.18745 16.4792 2.11343 16.4369C1.96049 16.3495 1.89097 16.4228 1.95364 16.6054C2.00591 16.7577 2.16104 16.7674 2.21111 16.6215ZM4.01356 19.1529C3.99394 19.0958 3.88542 19.0509 3.77236 19.0532L3.5668 19.0573L3.7246 19.2147C3.88741 19.377 4.0766 19.3365 4.01356 19.1529ZM5.08066 38.4203C5.08066 38.3565 5.00094 38.3051 4.90351 38.3061C4.76546 38.3072 4.74768 38.3327 4.82298 38.4203C4.94903 38.567 5.08066 38.567 5.08066 38.4203ZM4.53309 40.0543C4.64253 40.0095 4.35048 39.829 4.15479 39.8204C4.00645 39.8139 3.98407 39.8433 4.04198 39.969C4.10449 40.1046 4.31872 40.1418 4.53309 40.0543ZM118.238 44.695C118.218 44.6372 118.144 44.6172 118.073 44.6506C117.896 44.734 117.912 44.8001 118.109 44.8001C118.2 44.8001 118.258 44.7528 118.238 44.695ZM117.763 44.7209C117.717 44.6874 117.661 44.6915 117.64 44.73C117.618 44.7686 117.656 44.796 117.724 44.7909C117.799 44.7856 117.815 44.7579 117.763 44.7209ZM117.53 44.695C117.51 44.6372 117.435 44.6172 117.365 44.6506C117.187 44.734 117.203 44.8001 117.401 44.8001C117.491 44.8001 117.549 44.7528 117.53 44.695ZM117.832 45.4192C117.787 45.3871 117.715 45.3871 117.671 45.4192C117.626 45.4514 117.663 45.4778 117.751 45.4778C117.84 45.4778 117.876 45.4514 117.832 45.4192ZM72.3673 48.8599C72.3454 48.7962 72.2858 48.7439 72.2347 48.7439C72.1836 48.7439 72.1419 48.7961 72.1419 48.8599C72.1419 48.9237 72.2016 48.9759 72.2745 48.9759C72.3475 48.9759 72.3892 48.9238 72.3673 48.8599ZM58.2916 49.3021C69.4134 49.4743 71.4988 49.4269 71.9303 48.9921C72.0221 48.8996 72.0001 48.8661 71.804 48.7998C71.5753 48.7226 68.1296 48.8034 66.6018 48.9213C65.7572 48.9867 60.9333 48.9934 59.2901 48.9316C56.5366 48.8278 56.0774 48.8403 55.8319 49.0255C55.4853 49.287 55.4372 49.499 55.7538 49.3694C55.8918 49.3129 57.0338 49.2826 58.2916 49.3021ZM68.4689 49.9794C68.4518 49.9486 65.9737 49.889 62.962 49.8469C57.7381 49.774 56.8974 49.7531 53.3957 49.6095C52.563 49.5754 51.2585 49.5248 50.4968 49.4972C49.735 49.4695 48.503 49.4157 47.7589 49.3775C46.2571 49.3004 46.265 49.3007 46.084 49.3121C45.873 49.3253 37.0092 49.2148 36.9041 49.1976C36.851 49.1889 36.6046 49.1916 36.3566 49.204C36.1086 49.2162 35.4998 49.1979 35.0038 49.1636C34.5077 49.1292 33.2177 49.0728 32.1371 49.0383C30.2526 48.9781 29.3075 48.9405 25.8239 48.7872C23.562 48.6876 22.0675 48.6253 21.9768 48.6268C21.9331 48.6279 21.9149 48.5503 21.9358 48.4523C21.9645 48.3176 22.0429 48.2904 22.272 48.3359C22.577 48.3964 25.0335 48.421 25.4319 48.3676C25.6803 48.3343 25.7617 48.1177 25.5862 47.9567C25.5221 47.8978 24.8463 47.8361 24.0846 47.8195C23.3228 47.803 22.5111 47.7735 22.2808 47.7539C22.0505 47.7344 21.0504 47.6885 20.0583 47.6518C19.0662 47.6152 18.0371 47.5592 17.7714 47.5274C17.5057 47.4956 16.607 47.439 15.7744 47.4016C14.9418 47.3643 14.1735 47.3116 14.0673 47.2846C13.961 47.2577 13.4826 47.2129 13.0043 47.1852C11.8038 47.1156 10.6504 47.015 10.2665 46.9464C9.83485 46.8693 8.57514 46.7332 8.33387 46.7376C8.22758 46.7395 7.9232 46.6974 7.65746 46.6439C7.39173 46.5904 6.85544 46.5165 6.46569 46.4796C6.07595 46.4427 5.6846 46.3915 5.59602 46.3657C5.50745 46.3399 5.22192 46.2891 4.96153 46.2528C4.62889 46.2064 4.40309 46.1013 4.20231 45.8995C4.04513 45.7414 3.83151 45.6122 3.72758 45.6122C3.58165 45.6122 3.54754 45.5703 3.57778 45.4284C3.59932 45.3274 3.63464 45.2882 3.65629 45.3415C3.67793 45.3946 3.92755 45.4387 4.21099 45.4394C4.49444 45.4405 5.09596 45.4788 5.54771 45.5255C6.06913 45.5795 6.36906 45.5693 6.36906 45.4977C6.36906 45.3413 5.91034 44.9401 5.7756 44.9788C5.71493 44.9961 5.5265 44.9416 5.35687 44.8577L5.04846 44.7049L5.27392 44.6791C5.47664 44.6558 5.46689 44.6441 5.17729 44.5629C5.00014 44.5132 4.68609 44.4679 4.47941 44.4624C4.20946 44.455 4.1111 44.4114 4.13015 44.3072C4.14472 44.2275 4.22687 44.1466 4.31267 44.1275C4.39848 44.1084 4.51216 44.061 4.56531 44.0221C4.61845 43.9832 4.68673 43.9615 4.71703 43.9739C4.74733 43.9862 4.81201 43.9367 4.86076 43.8639C4.94286 43.7412 5.23076 43.7664 5.72486 43.9394C6.08082 44.0641 7.91514 44.1067 7.91514 43.9904C7.91514 43.9254 7.80644 43.8654 7.67357 43.8571C7.38172 43.8389 7.25125 43.8215 6.62674 43.7175C6.36101 43.6732 5.94067 43.6118 5.69266 43.5809C5.00122 43.4949 4.0906 43.2635 4.00911 43.1531C3.96894 43.0987 3.82399 43.0483 3.68701 43.041C3.36682 43.0242 3.21248 42.8781 3.21248 42.5922C3.21248 42.4392 3.25623 42.3643 3.34556 42.3643C3.54321 42.3643 3.72783 42.1512 3.68881 41.9681C3.66998 41.8797 3.69281 41.8104 3.73952 41.8141C3.78625 41.8183 3.94043 41.81 4.08215 41.7964C4.32384 41.7734 4.30784 41.7551 3.82447 41.5006C3.54103 41.3513 3.2142 41.1931 3.09818 41.1489C2.95045 41.0927 2.89254 41.0108 2.90492 40.8755C2.9148 40.7677 2.88579 40.6959 2.83931 40.713C2.77754 40.7357 2.77247 40.6884 2.81969 40.5295C2.93897 40.1281 3.06918 40.0258 3.41801 40.0591C3.6795 40.0841 3.76376 40.0512 3.77793 39.9187C3.79779 39.7332 3.47975 39.4731 3.20791 39.4525C3.07087 39.4422 3.07743 39.4257 3.2608 39.3198C3.48665 39.1893 3.50691 39.1088 3.40237 38.757C3.34179 38.5532 3.35134 38.5365 3.49197 38.6001C3.57874 38.6393 3.66868 38.6149 3.69241 38.5458C3.71646 38.4758 3.95416 38.414 4.2309 38.4059C4.67844 38.3928 4.69831 38.3831 4.43646 38.3049C4.27702 38.2573 3.92191 38.2361 3.64732 38.2578C3.35333 38.2809 3.14806 38.2509 3.14806 38.1847C3.14806 38.123 3.0773 38.0724 2.99081 38.0724C2.90433 38.0724 2.81565 38.0203 2.79376 37.9564C2.77185 37.8926 2.80638 37.8392 2.87048 37.8376C3.07991 37.8323 4.20625 37.7551 4.40426 37.7321C4.59743 37.7098 4.59745 37.7097 4.43893 37.5958C4.3517 37.5331 4.17776 37.4635 4.0524 37.4411C3.49299 37.3413 3.25928 37.2221 3.2302 37.0219C3.21391 36.9097 3.14528 36.7919 3.07769 36.7601C2.94096 36.6957 2.9094 36.455 3.03533 36.437C3.07962 36.4306 3.42024 36.4281 3.79226 36.4316C4.75019 36.44 5.38412 36.3301 5.23645 36.1813C5.11218 36.0561 5.02606 36.0313 4.14657 35.8673C3.49544 35.7459 2.98283 35.5619 3.18027 35.5204C3.25114 35.5055 3.3381 35.4999 3.37354 35.5078C3.40897 35.5158 3.33759 35.3654 3.21492 35.1736C3.09225 34.9817 2.94972 34.8247 2.89819 34.8247C2.84666 34.8247 2.82356 34.7904 2.84688 34.7484C2.8702 34.7064 2.85698 34.602 2.81751 34.5164C2.77805 34.4308 2.76544 34.3608 2.78952 34.3608C2.81361 34.3608 2.7882 34.2448 2.73299 34.103C2.58303 33.7175 2.60889 33.5488 2.81792 33.5488C3.09338 33.5488 3.40575 33.4178 3.40575 33.3023C3.40575 33.2465 3.36398 33.2008 3.31292 33.2008C3.13578 33.2008 3.14128 32.9677 3.32134 32.8439C3.49597 32.7239 3.49795 32.7136 3.37733 32.5542C3.30855 32.4632 3.21772 32.3888 3.17547 32.3888C3.13324 32.3888 3.08452 32.2914 3.06723 32.1723C3.04588 32.0254 2.91415 31.8919 2.65709 31.7567C2.44881 31.6472 2.22806 31.5097 2.16653 31.4512C2.10501 31.3927 1.97456 31.3441 1.87664 31.3431C1.77872 31.342 1.65594 31.2927 1.60379 31.2333C1.52222 31.1404 1.52408 31.1149 1.6171 31.0506C1.77532 30.9413 1.6953 30.361 1.43164 29.7054C1.31274 29.4097 1.21545 29.1007 1.21545 29.0185C1.21545 28.9364 1.16913 28.7771 1.11251 28.6644C0.993481 28.4276 1.05194 28.1642 1.20071 28.267C1.2563 28.3054 1.32211 28.2776 1.34694 28.2053C1.38045 28.1076 1.48428 28.1108 1.74919 28.2176C2.11202 28.3638 2.35136 28.3096 2.27866 28.0978C2.25659 28.0336 2.17505 27.9773 2.09742 27.9729C1.9661 27.9653 1.96495 27.9586 2.08084 27.8769C2.23727 27.7666 2.17945 27.7107 1.70481 27.5135C1.32061 27.3538 1.04377 27.007 0.900185 26.5055L0.826447 26.248L1.35915 26.3215C1.85096 26.3894 1.88507 26.3802 1.80344 26.202C1.7285 26.0385 1.7285 26.007 1.80344 25.9957C1.85207 25.9883 1.92084 25.9702 1.95627 25.9554C1.9917 25.9406 2.07142 25.9205 2.13343 25.9107C2.38657 25.8711 2.16101 25.5659 1.73081 25.366C1.71306 25.3578 1.64061 25.3114 1.56975 25.263C1.49889 25.2145 1.40468 25.1554 1.36039 25.1316C1.3161 25.1078 1.27986 24.9881 1.27986 24.8655C1.27986 24.6527 1.29529 24.6501 1.61807 24.8092C1.80408 24.9009 1.99976 25.0162 2.0529 25.0656C2.16936 25.1737 2.47163 25.0566 2.47163 24.9035C2.47163 24.8434 2.41365 24.7747 2.34279 24.7508C2.27193 24.7269 2.19363 24.644 2.16879 24.5666C2.14395 24.4893 1.99901 24.3583 1.84669 24.2755C1.27033 23.9622 1.23923 23.9261 1.60196 23.9911C1.79684 24.026 2.07223 24.1016 2.21396 24.1591C2.35568 24.2165 2.66006 24.2655 2.89037 24.2681C3.17458 24.2716 3.27863 24.3073 3.21427 24.3807C3.13078 24.4757 3.13078 24.4946 3.21427 24.5382C3.37163 24.6204 4.07659 24.8471 4.37866 24.9126C4.53445 24.9463 4.85034 25.0231 5.08064 25.0831C5.67983 25.2394 6.40684 25.3496 6.36904 25.2784C6.33565 25.2155 5.45204 24.8641 5.11286 24.7787C5.00657 24.752 4.83263 24.7003 4.72633 24.6638C4.62005 24.6273 4.33369 24.555 4.08999 24.5031C3.84629 24.4512 3.62887 24.3606 3.60684 24.3019C3.5848 24.2431 3.34936 24.1273 3.08363 24.0446C2.81789 23.9618 2.55979 23.835 2.51005 23.7627C2.46032 23.6903 2.41683 23.651 2.41342 23.6753C2.40133 23.761 1.85978 23.5514 1.82397 23.4471C1.80398 23.3888 1.73657 23.3412 1.67417 23.3412C1.61177 23.3412 1.47868 23.1559 1.37841 22.9295C1.27814 22.703 1.15791 22.5441 1.11121 22.5764C1.06452 22.6086 1.01114 22.5909 0.992594 22.5368C0.940019 22.3837 1.27747 22.0387 1.39781 22.1226C1.52178 22.209 3.12429 22.49 3.49064 22.4896C3.85583 22.4892 3.64892 22.3279 2.78716 21.9415C2.15895 21.6597 1.77205 21.5327 1.42481 21.4942C1.31652 21.4822 1.32224 21.0826 1.43307 20.917C1.49249 20.8282 1.57346 20.8196 1.67781 20.891C1.94641 21.0749 2.69709 21.1808 2.69709 21.0348C2.69709 20.9635 2.60288 20.8973 2.48773 20.8876C2.37258 20.8779 2.24937 20.8578 2.21395 20.843C2.17851 20.8282 2.0698 20.81 1.97237 20.8026C1.87493 20.7953 1.79522 20.7228 1.79522 20.6417C1.79522 20.4953 1.25066 20.2093 0.971971 20.2093C0.889282 20.2093 0.828913 20.1376 0.828913 20.0394C0.828913 19.9459 0.770936 19.8136 0.700074 19.7453C0.62921 19.677 0.571232 19.6555 0.571232 19.6975C0.571232 19.7394 0.527749 19.7088 0.474604 19.6294C0.268343 19.3211 0.376905 19.2566 0.961536 19.3399C1.47481 19.4131 1.55498 19.3987 1.62711 19.2211C1.73538 18.9545 2.12963 18.8477 2.56826 18.9662C3.40649 19.1926 3.56754 19.2027 3.48494 19.0235C3.44245 18.9313 3.34202 18.8662 3.26175 18.8788C3.18149 18.8914 3.08683 18.863 3.0514 18.8158C3.01597 18.7686 2.81305 18.6946 2.60046 18.6513C2.02029 18.5331 1.60195 18.2624 1.60195 18.0051C1.60195 17.8609 1.52341 17.745 1.36038 17.6486C1.22751 17.5701 1.08253 17.4136 1.0382 17.3008C0.993869 17.1881 0.870664 17.0614 0.764412 17.0194C0.643817 16.9717 0.57123 16.8702 0.571226 16.7492C0.57122 16.58 0.633466 16.5629 1.06339 16.6144C1.38769 16.6532 1.59091 16.6267 1.65918 16.5368C1.71617 16.4618 1.74835 16.3792 1.73069 16.3533C1.68378 16.2845 0.723444 15.9387 0.32966 15.8488C-0.172464 15.7342 -0.0801541 15.5506 0.465181 15.5793C0.72573 15.5929 0.972137 15.5672 1.01275 15.522C1.14863 15.3707 1.09659 14.7885 0.925545 14.5462C0.836969 14.4208 0.764482 14.2995 0.764465 14.2768C0.764453 14.2541 1.11297 14.2822 1.53895 14.3393C1.96493 14.3963 2.33372 14.4065 2.35847 14.362C2.43698 14.2206 2.22348 14.0652 1.94821 14.0633C1.56162 14.061 1.27985 13.9377 1.27985 13.7716C1.27985 13.6918 1.18564 13.5429 1.07049 13.4407C0.869369 13.2622 0.867464 13.2542 1.02217 13.2388C1.11075 13.23 1.21221 13.2107 1.24764 13.1959C1.28308 13.1811 1.37004 13.1602 1.44091 13.1495C1.54849 13.1332 1.55381 13.1115 1.47312 13.0176C1.39397 12.9255 1.40112 12.9048 1.51264 12.9034C1.58752 12.9023 1.79044 12.9499 1.96358 13.0089C2.45539 13.1765 3.32435 13.1742 3.50348 13.0047C3.53828 12.9718 4.12369 12.9311 4.80438 12.9142C5.48506 12.8974 6.17839 12.8485 6.3451 12.8055C6.70611 12.7126 6.81013 12.4398 6.48714 12.4331C6.03678 12.4238 5.29697 12.3138 5.08063 12.2241C4.94814 12.1691 5.62552 12.128 6.72335 12.1242C9.43832 12.115 10.2987 12.0811 10.2987 11.9831C10.2987 11.9354 10.2624 11.8927 10.2181 11.8884C10.1738 11.8842 9.94918 11.8489 9.71887 11.8102C9.48857 11.7714 8.92196 11.7185 8.45974 11.6924C7.56885 11.6422 7.1631 11.5487 7.10535 11.3805C7.08593 11.3239 6.99929 11.2776 6.91281 11.2776C6.80433 11.2776 6.75555 11.2129 6.75555 11.0688C6.75555 10.954 6.72099 10.7978 6.67874 10.7217C6.61927 10.6146 6.65892 10.5898 6.85434 10.6115C7.03498 10.6316 7.10719 10.5933 7.10831 10.4767C7.10893 10.3871 7.15701 10.3013 7.21464 10.2861C7.69529 10.1591 7.7244 9.79153 7.24773 9.86819C7.17017 9.88068 7.1399 9.83125 7.1619 9.72799C7.19454 9.57489 6.99972 9.42164 6.5623 9.25629C6.47372 9.2228 6.29979 9.03766 6.17578 8.84485C6.05177 8.65203 5.92132 8.48895 5.88589 8.48244C5.7519 8.45781 6.15344 8.28436 6.36999 8.2733C6.49452 8.26694 6.7072 8.15482 6.84261 8.02415C7.03354 7.83989 7.15199 7.80361 7.3703 7.86256C7.60012 7.92461 7.68348 7.89367 7.82436 7.69417C7.91926 7.55975 8.03648 7.44977 8.08485 7.44977C8.13322 7.44977 8.1728 7.37819 8.1728 7.29072C8.1728 7.13389 8.12141 7.11449 7.19396 6.92114C6.88427 6.85658 6.82404 6.80595 6.80744 6.59624C6.7928 6.4115 6.73537 6.33866 6.58338 6.31213C6.44993 6.28881 6.34197 6.17471 6.27233 5.98334C6.17304 5.71046 6.17306 5.67552 6.27264 5.47737C6.33443 5.35442 6.37058 5.12724 6.35822 4.93947C6.33826 4.63598 6.35821 4.60545 6.65892 4.4796C7.09917 4.29535 7.20649 4.20438 7.20649 4.01549C7.20649 3.92662 7.26447 3.8539 7.33534 3.8539C7.4062 3.8539 7.46417 3.81214 7.46417 3.7611C7.46417 3.57643 7.30603 3.38981 7.14529 3.3848C6.96962 3.37944 6.28213 3.06291 6.41735 3.04976C6.46164 3.04559 6.49787 2.91702 6.49787 2.76436C6.49787 2.48333 6.6457 2.28552 6.81651 2.33797C6.89445 2.36189 6.89579 2.33685 6.82474 2.18227C6.778 2.08091 6.76894 1.99797 6.80455 1.99797C6.84019 1.99797 6.88452 1.8935 6.90306 1.76581C6.9216 1.63814 6.91251 1.56069 6.88281 1.59372C6.85314 1.62673 6.81064 1.60068 6.78838 1.53589C6.76238 1.46011 6.92756 1.41539 7.25098 1.41068C8.54995 1.39176 8.87834 1.35404 8.95551 1.21502C9.01989 1.09903 8.95932 1.06928 8.65269 1.06633C8.3064 1.06276 8.28114 1.04664 8.39103 0.896835C8.47541 0.78181 8.54755 0.764648 8.62658 0.840796C8.77664 0.985403 10.4753 0.891123 10.5816 0.732308C10.6471 0.634495 13.4034 0.327771 13.5744 0.399284C13.733 0.465633 16.6209 0.20947 16.6493 0.126517C16.669 0.0691686 16.7066 0.046178 16.7328 0.075416C16.8145 0.166258 17.6252 0.167092 18.8665 0.077798C19.522 0.0305044 20.7685 -0.00428068 21.6365 0.000426728C22.5046 0.00518996 23.983 0.00928266 24.922 0.0097106C26.7157 0.0102688 27.5329 0.0347553 28.0141 0.101788C28.1736 0.123978 31.5943 0.165157 35.6157 0.193279C42.5414 0.241704 45.6445 0.303252 47.6944 0.432857C48.1905 0.464268 49.437 0.518095 50.4645 0.552587C51.492 0.587091 52.8535 0.636407 53.4901 0.662225C54.2165 0.691673 54.6124 0.669072 54.553 0.601511C54.4903 0.5301 54.6103 0.499402 54.9095 0.510313C55.3564 0.526612 55.3576 0.527451 55.0383 0.606312C54.7631 0.674268 54.8036 0.688512 55.3159 0.704082C55.7479 0.717237 55.903 0.685589 55.8705 0.591052C55.8378 0.495666 55.938 0.481038 56.2372 0.537512C56.7885 0.641577 58.9665 0.657485 59.0558 0.558095C59.1312 0.474108 65.3814 0.458376 65.4279 0.542091C65.443 0.569277 65.5307 0.540231 65.6228 0.476914C65.861 0.313835 73.6731 0.368066 74.4077 0.537898C74.8932 0.650156 76.4365 0.723285 78.0685 0.711359C78.9365 0.704995 79.8279 0.708382 80.0494 0.718615C80.3789 0.733966 80.452 0.70386 80.452 0.552829C80.452 0.389755 80.5589 0.375625 81.37 0.43148C81.8749 0.466283 82.317 0.499246 82.3524 0.504802C82.3878 0.510161 82.8227 0.513899 83.3187 0.512652C83.8147 0.511536 84.4235 0.528711 84.6715 0.551145C84.9195 0.573514 87.3356 0.623442 90.0407 0.662058C93.5084 0.711552 94.9835 0.69549 95.0424 0.607504C95.1323 0.473075 100.23 0.400552 101.002 0.522703C101.232 0.55911 101.735 0.643454 102.119 0.710084C102.503 0.776717 102.837 0.823654 102.86 0.814378C102.883 0.805168 103.12 0.835917 103.386 0.882812C103.855 0.965752 105.061 1.05719 106.768 1.13941C108.502 1.22299 109.604 1.3272 109.654 1.41255C109.682 1.46109 109.825 1.46145 109.971 1.41367C110.117 1.3656 110.427 1.35177 110.66 1.38303C110.893 1.41426 111.113 1.43669 111.148 1.43288C111.184 1.42871 111.589 1.39743 112.05 1.36255C112.511 1.32769 113.192 1.27411 113.564 1.2435C113.936 1.21286 114.613 1.1612 115.068 1.12863C115.524 1.09609 115.92 1.04328 115.949 1.01134C115.977 0.979391 116.012 1.01431 116.026 1.08889C116.042 1.17398 116.2 1.22201 116.45 1.21776C116.67 1.21359 116.849 1.25822 116.849 1.31594C116.849 1.37365 116.958 1.39635 117.091 1.36639C117.791 1.20829 118.46 1.17183 118.46 1.29173C118.46 1.36157 118.375 1.41871 118.27 1.41871C118.166 1.41871 118.06 1.47978 118.034 1.55442C118.003 1.64519 118.023 1.66602 118.093 1.61735C118.152 1.57678 118.244 1.6262 118.301 1.72895C118.379 1.86935 118.479 1.89715 118.721 1.84548C119.037 1.77827 119.159 1.91482 118.911 2.05669C118.84 2.09721 118.782 2.20999 118.782 2.30736C118.782 2.40473 118.724 2.5117 118.653 2.54506C118.582 2.57844 118.524 2.65492 118.524 2.71504C118.524 2.77516 118.551 2.79507 118.583 2.7593C118.615 2.72348 118.709 2.74324 118.792 2.80308C118.909 2.88744 118.917 2.9136 118.827 2.9193C118.598 2.93376 117.816 3.29509 117.816 3.38626C117.816 3.43742 117.932 3.48217 118.074 3.4857C118.385 3.49344 118.528 3.72138 118.57 4.27416C118.614 4.86772 118.482 5.34259 118.217 5.5418C118.029 5.68378 118.006 5.7382 118.073 5.88456C118.117 5.98025 118.235 6.05854 118.335 6.05854C118.435 6.05854 118.535 6.11071 118.556 6.17453C118.578 6.23834 118.534 6.29053 118.459 6.29053C118.363 6.29053 118.328 6.35161 118.343 6.49352C118.359 6.64697 118.44 6.70522 118.674 6.73217C119.095 6.78072 119.035 7.02711 118.584 7.10372C117.844 7.22913 117.931 7.58978 118.693 7.55678C119.367 7.52757 119.454 7.62477 118.849 7.73211C118.599 7.77631 118.243 7.90911 118.057 8.02719L117.719 8.24189L118.085 8.20548C118.365 8.17758 118.443 8.20436 118.419 8.32003C118.401 8.40307 118.419 8.50548 118.455 8.5476C118.569 8.67439 118.533 8.82403 118.379 8.86341C118.26 8.89393 118.238 8.96221 118.255 9.24846C118.266 9.43985 118.308 9.61699 118.347 9.64211C118.386 9.66721 118.482 9.81076 118.559 9.9611C118.644 10.1253 118.774 10.2351 118.886 10.236C118.988 10.2371 119.137 10.2692 119.217 10.3079C119.352 10.3729 119.345 10.3942 119.121 10.591C118.988 10.708 118.794 10.8603 118.691 10.9294C118.548 11.0249 118.521 11.0874 118.578 11.1899C118.691 11.3934 118.668 11.5921 118.524 11.66C118.28 11.7751 118.391 11.9743 118.701 11.9761C118.923 11.9773 118.981 12.009 118.911 12.0904C118.858 12.1522 118.717 12.2036 118.599 12.2046C118.293 12.207 118.371 12.4875 118.69 12.5303C119.607 12.6533 120.673 12.8981 120.707 12.9932C120.74 13.0864 120.959 13.1912 121.391 13.3203C121.426 13.3309 121.644 13.3493 121.874 13.3611C122.129 13.3743 122.246 13.4159 122.173 13.4677C122.107 13.5144 121.734 13.5338 121.346 13.5107C120.653 13.4696 120.64 13.4734 120.682 13.7121C120.719 13.9249 120.705 13.9464 120.566 13.8835C120.385 13.8019 120.272 13.9989 120.435 14.1113C120.493 14.1515 120.791 14.1866 121.098 14.1893C121.404 14.1916 121.697 14.2447 121.748 14.3067C121.816 14.388 121.77 14.415 121.584 14.4036C121.219 14.3813 121.138 14.3989 121.188 14.49C121.249 14.5986 121.41 14.6236 122.179 14.6427C122.541 14.6518 122.867 14.6266 122.903 14.5867C122.941 14.5443 122.952 14.5886 122.929 14.6943C122.907 14.7984 122.814 14.8743 122.708 14.8743C122.608 14.8743 122.508 14.9273 122.485 14.9921C122.463 15.0569 122.346 15.0904 122.226 15.0665C122.105 15.0426 122.022 15.0688 122.042 15.1251C122.061 15.1813 121.995 15.2249 121.895 15.2221C121.485 15.2103 120.972 15.3713 120.972 15.5117C120.972 15.7149 121.687 15.8184 122.541 15.7388C123.157 15.6813 123.249 15.6975 123.322 15.876C123.381 16.0222 123.387 16.1769 123.342 16.4333C123.308 16.6285 123.278 16.8535 123.275 16.9332C123.272 17.013 123.231 17.0782 123.184 17.0782C123.137 17.0782 123.098 17.1565 123.098 17.2522C123.098 17.3479 123.069 17.4262 123.034 17.4262C122.998 17.4262 122.969 17.5045 122.969 17.6002C122.969 17.7171 122.901 17.7775 122.76 17.7842C121.902 17.825 121.68 17.8529 121.64 17.9245C121.584 18.0259 121.603 18.0305 122.486 18.1207C122.592 18.1316 122.643 18.1668 122.599 18.199C122.497 18.2727 122.494 18.661 122.593 18.7718C122.634 18.8176 122.886 18.8778 123.151 18.9056C123.439 18.9356 123.67 19.02 123.723 19.1141C123.771 19.2011 123.853 19.2428 123.905 19.2068C123.957 19.1708 124 19.2004 124 19.2726C124 19.4712 123.672 19.6565 123.439 19.5897C123.293 19.5478 123.185 19.5983 123.069 19.7627C122.829 20.1019 122.857 20.3773 123.146 20.523C123.38 20.6408 123.374 20.6453 122.957 20.6594C122.589 20.6719 122.511 20.712 122.425 20.9337C122.331 21.1755 122.333 21.2063 122.465 21.3854C122.57 21.5276 122.617 21.7479 122.647 22.2329C122.687 22.8832 122.685 22.8897 122.48 23.0649C122.366 23.162 122.234 23.2318 122.187 23.22C122.139 23.2082 121.743 23.2047 121.307 23.2123C120.742 23.222 120.526 23.2632 120.558 23.3552C120.585 23.4325 120.703 23.4603 120.852 23.4243C120.989 23.3911 121.101 23.4113 121.101 23.469C121.101 23.5267 121.224 23.5744 121.375 23.575C121.969 23.5774 122.341 23.7153 122.374 23.9459C122.393 24.0732 122.484 24.1938 122.591 24.2324C122.716 24.2773 122.776 24.3698 122.776 24.5164C122.776 24.7042 122.827 24.7339 123.152 24.7339C123.358 24.7339 123.547 24.7692 123.571 24.8123C123.629 24.9159 123.358 25.4299 123.246 25.4299C123.198 25.4299 123.141 25.5112 123.12 25.6106C123.099 25.7099 123.049 25.769 123.009 25.7418C122.889 25.6598 122.656 25.8681 122.671 26.0444C122.678 26.1351 122.734 26.2986 122.795 26.4079C122.98 26.7418 122.922 26.8219 122.493 26.8219C122.186 26.8219 122.072 26.8663 122.044 26.9958C122.015 27.1341 122.065 27.1698 122.287 27.1698C122.457 27.1698 122.598 27.238 122.647 27.3438C122.691 27.4395 122.789 27.5215 122.864 27.526C122.994 27.5336 122.994 27.5391 122.877 27.622C122.8 27.6765 122.779 27.7394 122.823 27.7879C122.861 27.8309 122.878 27.9705 122.859 28.0982C122.815 28.3986 123.126 29.1418 123.295 29.1418C123.391 29.1418 123.42 29.2221 123.42 29.4829C123.42 29.6705 123.389 29.8589 123.351 29.9016C123.312 29.9441 123.298 30.1038 123.32 30.2564C123.355 30.5095 123.338 30.5337 123.132 30.5337C122.915 30.5337 122.905 30.5526 122.905 30.9397C122.905 31.2083 122.935 31.3457 122.994 31.3457C123.094 31.3457 123.322 31.9086 123.265 32.0126C123.244 32.0493 123.093 32.0702 122.93 32.059C122.645 32.0396 122.633 32.0515 122.662 32.3267C122.679 32.485 122.674 32.5935 122.651 32.5676C122.628 32.5418 122.574 32.6216 122.531 32.7451C122.458 32.9538 122.472 32.9699 122.727 32.9733C122.955 32.9763 122.985 33.0009 122.901 33.1183C122.846 33.196 122.781 33.351 122.758 33.4626C122.731 33.5931 122.648 33.6656 122.525 33.6656C122.42 33.6656 122.289 33.7473 122.234 33.8471C122.178 33.9469 122.053 34.0174 121.955 34.0036C121.614 33.9555 121.23 34.0144 121.23 34.1146C121.23 34.1702 121.401 34.2505 121.611 34.2932C121.82 34.3358 122.024 34.4418 122.064 34.5288C122.104 34.6157 122.216 34.7223 122.312 34.7656C122.471 34.8378 122.476 34.857 122.373 34.9928C122.231 35.1807 122.228 35.4055 122.368 35.4055C122.59 35.4055 122.383 35.553 122.118 35.5833C121.644 35.6376 121.024 35.8635 120.817 36.0576C120.685 36.1811 120.336 36.2749 119.781 36.3363C119.32 36.3873 118.864 36.4649 118.768 36.5089C118.618 36.5775 118.606 36.6122 118.683 36.7512C118.753 36.8774 119.014 36.9133 119.856 36.9129C120.93 36.9123 121.047 36.9421 121.778 37.4022C121.884 37.4692 122.166 37.5335 122.405 37.5453C122.849 37.5673 123.089 37.7139 122.722 37.7399C122.61 37.7479 122.489 37.7675 122.454 37.7834C122.419 37.7994 122.361 37.8189 122.325 37.8269C122.29 37.8349 122.261 38.0241 122.261 38.2474C122.261 38.5847 122.236 38.657 122.116 38.675C121.649 38.7446 121.34 38.7667 120.926 38.76C120.382 38.7512 120.3 38.807 120.395 39.1244C120.448 39.304 120.536 39.3519 120.83 39.3619C121.032 39.3689 121.372 39.4134 121.584 39.4609C121.899 39.5312 121.929 39.5544 121.745 39.5857C121.621 39.6069 121.462 39.6355 121.391 39.6493C121.32 39.6632 121.2 39.6797 121.123 39.6859C121.02 39.6944 120.993 39.7537 121.016 39.9158C121.051 40.1585 121.312 40.2728 121.842 40.2778C122.222 40.2814 122.293 40.3538 122.293 40.7396C122.293 41.0739 122.134 41.1693 121.54 41.1916C121.338 41.1991 121.156 41.2543 121.136 41.3142C121.081 41.4728 121.29 41.649 121.449 41.5779C121.581 41.5184 121.581 41.5228 121.467 41.7566C121.353 41.9885 121.353 41.998 121.467 42.0513C121.532 42.0816 121.714 42.1153 121.872 42.126C122.031 42.1368 122.172 42.1671 122.187 42.1933C122.201 42.2195 122.166 42.4204 122.108 42.6396C121.988 43.0969 121.976 43.2932 122.068 43.2932C122.162 43.2932 122.146 43.4831 122.035 43.6826C121.982 43.7783 121.939 43.9459 121.939 44.055C121.939 44.2272 121.888 44.245 121.552 44.1903C121.255 44.1417 121.166 44.163 121.166 44.2824C121.166 44.5258 121.012 44.5621 119.884 44.5846C119.303 44.5962 118.737 44.6449 118.627 44.6929C118.516 44.7418 118.947 44.7799 119.608 44.7796C120.257 44.7796 120.806 44.8101 120.827 44.8481C120.848 44.886 120.563 44.9226 120.194 44.9294C118.696 44.9566 117.808 45.0083 117.774 45.0702C117.754 45.1061 117.849 45.2221 117.986 45.3279C118.187 45.4832 118.432 45.5168 119.263 45.5028C119.829 45.4933 120.274 45.5176 120.252 45.557C120.23 45.5964 119.898 45.631 119.513 45.6339C118.824 45.6392 118.202 45.8509 118.202 46.0807C118.202 46.2065 118.241 46.2159 118.879 46.2447C119.914 46.2915 120.07 46.3143 120.07 46.4179C120.07 46.4777 119.759 46.5475 119.378 46.573C118.997 46.5985 118.555 46.6554 118.396 46.6994C118.236 46.7435 117.935 46.8013 117.726 46.8279C117.295 46.8827 117.225 46.9605 117.278 47.3243C117.305 47.5126 117.408 47.6342 117.662 47.7784C117.853 47.8868 118.009 48.0051 118.008 48.0412C118.005 48.196 117.899 48.3774 117.703 48.5578C117.462 48.7798 117.451 48.8363 117.606 49.0456C117.707 49.1818 117.699 49.1953 117.528 49.1744C117.392 49.1577 117.331 49.2088 117.314 49.354C117.3 49.4791 117.33 49.557 117.392 49.557C117.557 49.557 117.508 49.7574 117.323 49.8411C117.137 49.9252 115.97 49.9433 115.896 49.8632C115.853 49.8163 114.741 49.7342 112.404 49.6054C111.82 49.5732 111.255 49.5256 111.148 49.4995C110.932 49.4467 109.656 49.2962 109.506 49.3058C108.968 49.3401 107.545 49.3135 107.52 49.2688C107.503 49.237 107.449 49.2688 107.402 49.3402C107.338 49.4358 107.29 49.4319 107.219 49.325C107.142 49.2097 107.102 49.2101 107.024 49.3268C106.95 49.4376 106.489 49.4705 105.13 49.462C103.718 49.4532 103.326 49.4827 103.301 49.6003C103.275 49.7207 102.491 49.7437 99.2851 49.7179C97.0938 49.7003 94.9966 49.6863 94.6246 49.6867C94.2525 49.6867 93.8612 49.6856 93.7549 49.6831C93.6486 49.6813 93.4167 49.6812 93.2395 49.6842C92.5115 49.6951 89.687 49.6909 89.5676 49.6789C89.4967 49.6717 89.2068 49.6667 88.9234 49.6677C88.6399 49.6689 87.9442 49.6431 87.3773 49.6106C86.4253 49.5558 84.1339 49.5255 84.0597 49.5667C84.0419 49.5765 84.0086 49.5801 83.9855 49.5746C83.9625 49.5693 83.2967 49.5339 82.5061 49.4963C81.7117 49.4585 81.0341 49.3764 80.9916 49.3128C80.9403 49.2363 80.9006 49.2385 80.8728 49.3195C80.8499 49.3864 80.7821 49.4403 80.7221 49.4394C80.6281 49.4382 80.6264 49.4219 80.7099 49.3228C80.7827 49.2362 80.7561 49.2141 80.6016 49.2326C80.4889 49.2462 80.4109 49.2986 80.4282 49.3492C80.4456 49.3998 80.3276 49.4411 80.1661 49.4411C79.9768 49.4411 79.8706 49.3896 79.8673 49.2961C79.8633 49.1801 79.8557 49.1801 79.8297 49.2961C79.7926 49.462 79.5503 49.4958 79.5503 49.3351C79.5503 49.2435 79.419 49.2489 78.9705 49.3587C78.9174 49.3717 78.4825 49.3122 78.0042 49.2264C77.5259 49.1406 77.0476 49.0945 76.9413 49.124C76.835 49.1534 76.703 49.1361 76.6479 49.0854C76.5488 48.9942 74.6175 48.8366 73.8224 48.855C73.5951 48.8603 73.3777 48.9107 73.3392 48.9672C73.214 49.1513 72.407 49.4609 72.2646 49.3795C72.1864 49.3349 72.1417 49.3463 72.162 49.4057C72.2048 49.5302 71.0782 49.8965 70.6603 49.894C70.5009 49.8929 70.327 49.8988 70.2738 49.9065C70.2207 49.9144 69.8965 49.9143 69.5535 49.9065C69.2105 49.8985 68.8331 49.9246 68.715 49.9645C68.5969 50.0044 68.4862 50.0118 68.469 49.981L68.4689 49.9794Z" fill="#DAC4AF"/>
</svg>
