<svg width="216" height="55" viewBox="0 0 216 55" fill="none" xmlns="http://www.w3.org/2000/svg">
<g clip-path="url(#clip0_10011_2)">
<path d="M108.68 38.8899C104.99 37.5699 101.81 34.8899 99.82 31.5299C98.82 29.8399 98.01 27.8799 97.78 25.9199C97.65 24.8099 97.84 23.4599 98.89 22.8299C100.05 22.1499 101.27 23.1099 102.23 23.7199C102.5 23.8899 102.81 23.4999 102.57 23.2699C101.29 22.0499 99.31 21.1399 97.88 22.6699C96.55 24.0899 96.9 26.1999 97.37 27.9099C98.32 31.3599 100.42 34.4899 103.18 36.7499C104.75 38.0399 106.54 39.0199 108.46 39.6799C108.96 39.8499 109.17 39.0599 108.68 38.8899Z" fill="#0D0A07"/>
<path d="M102.97 23.3701C102.81 21.3201 103.24 19.0301 104.55 17.3901C105.71 15.9301 107.56 15.0001 109.44 15.3101C111.32 15.6201 112.82 16.8901 113.74 18.4501C114.86 20.3601 115.04 22.5201 115.15 24.6801C115.17 25.0901 115.76 25.0901 115.79 24.6801C116.02 21.2201 114.9 17.2801 111.79 15.3801C110.47 14.5701 108.85 14.2301 107.33 14.6301C105.81 15.0301 104.44 16.1301 103.59 17.4801C102.47 19.2501 102.3 21.3301 102.55 23.3701C102.58 23.6301 102.98 23.6401 102.96 23.3701H102.97Z" fill="#0D0A07"/>
<path d="M115.59 25.2601C115.83 27.8901 115.35 30.5301 114.26 32.9401C113.17 35.3501 111.48 37.2201 109.55 39.0101C109.44 39.1101 109.58 39.2801 109.7 39.2101C111.98 37.8801 113.68 35.4701 114.73 33.1101C115.78 30.7501 116.26 27.9301 115.99 25.2601C115.96 25.0101 115.56 25.0001 115.59 25.2601Z" fill="#0D0A07"/>
<path d="M109.37 39.56C110.08 39.56 110.09 38.45 109.37 38.45C108.65 38.45 108.65 39.56 109.37 39.56Z" fill="#0D0A07"/>
<path d="M102.48 24.36C103.23 26.9 104.15 29.39 105.22 31.82C105.75 33.02 106.32 34.2 106.94 35.37C107.26 35.97 107.58 36.56 107.93 37.14C108.28 37.72 108.56 38.34 109.03 38.79C109.21 38.96 109.54 38.79 109.46 38.54C109.28 37.99 108.92 37.5 108.62 37C108.28 36.42 107.95 35.83 107.62 35.24C106.98 34.09 106.39 32.92 105.83 31.73C104.7 29.3 103.76 26.79 102.98 24.23C102.88 23.91 102.39 24.05 102.48 24.37V24.36Z" fill="#0D0A07"/>
<path d="M115.2 19.6699C116.06 17.8599 118.47 17.2699 119.97 18.6699C120.75 19.3999 120.93 20.4599 121.04 21.4699C121.15 22.4799 121.21 23.4099 121.21 24.3899C121.21 26.4299 120.92 28.5199 119.94 30.3299C118.96 32.1399 117.52 33.4399 116.04 34.7299C114.25 36.2899 112.42 37.9999 110.2 38.9199C109.79 39.0899 109.94 39.6699 110.38 39.5899C111.51 39.3899 112.45 38.7399 113.34 38.0399C114.36 37.2299 115.33 36.3699 116.29 35.4999C118.03 33.9299 119.83 32.2699 120.81 30.0999C121.79 27.9299 121.95 25.6799 121.83 23.4199C121.73 21.4599 121.7 18.9699 119.82 17.8299C117.94 16.6899 115.66 17.5599 114.88 19.5499C114.81 19.7299 115.11 19.8599 115.19 19.6799L115.2 19.6699Z" fill="#0D0A07"/>
<path d="M117.04 29.93C116.34 31.49 115.41 32.98 114.37 34.34C113.84 35.02 113.27 35.67 112.66 36.28C112.05 36.89 111.32 37.43 110.71 38.06C110.58 38.2 110.75 38.41 110.91 38.32C111.67 37.9 112.33 37.26 112.95 36.66C113.57 36.06 114.2 35.35 114.76 34.64C115.86 33.24 116.69 31.71 117.35 30.06C117.42 29.89 117.12 29.76 117.05 29.93H117.04Z" fill="#0D0A07"/>
<path d="M101.69 29.7701C102.64 31.6901 103.81 33.4801 105.17 35.1301C105.84 35.9401 106.54 36.7301 107.3 37.4601C107.86 37.9901 108.72 38.8201 109.57 38.6901C109.7 38.6701 109.74 38.4701 109.65 38.3901C109.35 38.1201 108.94 37.9701 108.6 37.7501C108.2 37.4901 107.85 37.1701 107.51 36.8401C106.79 36.1401 106.11 35.3901 105.47 34.6101C104.17 33.0401 103.01 31.3501 102 29.5801C101.88 29.3801 101.59 29.5601 101.69 29.7601V29.7701Z" fill="#0D0A07"/>
<path d="M106.92 27.35C107.21 29.33 107.52 31.31 107.94 33.26C108.14 34.22 108.38 35.17 108.62 36.12C108.86 37.07 109.09 38.11 109.47 39.05C109.59 39.33 109.99 39.23 109.93 38.92C109.76 37.96 109.45 37.02 109.2 36.08C108.95 35.14 108.69 34.11 108.45 33.13C107.96 31.2 107.48 29.26 107.07 27.32C107.05 27.22 106.91 27.27 106.93 27.36L106.92 27.35Z" fill="#0D0A07"/>
<path d="M109.74 29.7901C110.11 31.2901 110.26 32.8501 110.2 34.3901C110.17 35.1501 110.08 35.9101 109.95 36.6601C109.82 37.4101 109.57 38.1701 109.42 38.9401C109.39 39.1101 109.63 39.2401 109.72 39.0601C110.42 37.7001 110.62 35.9801 110.67 34.4701C110.72 32.8501 110.49 31.2601 110.02 29.7101C109.97 29.5301 109.7 29.6101 109.74 29.7901Z" fill="#0D0A07"/>
<path d="M113 24.3399C113.02 27.1199 113.09 29.8599 112.53 32.5999C112.29 33.7799 111.89 34.9199 111.36 35.9999C111.1 36.5299 110.8 37.0399 110.47 37.5299C110.16 37.9899 109.68 38.3999 109.51 38.9299C109.46 39.0899 109.64 39.1899 109.77 39.1299C110.24 38.9199 110.54 38.3899 110.83 37.9699C111.18 37.4499 111.49 36.9099 111.77 36.3499C112.31 35.2299 112.69 34.0399 112.99 32.8299C113.66 30.0899 113.64 27.1199 113.3 24.3399C113.28 24.1599 113.01 24.1499 113.01 24.3399H113Z" fill="#0D0A07"/>
<path d="M99.5 36.9899C100.52 36.5899 101.45 37.2099 102.16 37.8999C102.87 38.5899 103.46 39.3199 104.28 39.8799C105.05 40.3999 105.99 40.7199 106.9 40.8699C107.92 41.0399 109.15 41.1699 109.99 40.4699C110.49 40.0599 110.18 39.2499 109.63 39.0899C109.12 38.9399 108.64 39.0599 108.12 39.0899C107.69 39.1199 107.25 39.1099 106.82 39.0399C105.89 38.8999 104.93 38.5499 104.13 38.0599C102.66 37.1599 101.15 35.3999 99.26 36.4099C98.95 36.5699 99.17 37.1199 99.5 36.9899Z" fill="#0D0A07"/>
<path d="M109.59 39.77C109.9 40.1 110.19 40.42 110.58 40.65C110.99 40.89 111.52 40.97 111.99 41C112.97 41.07 114.03 40.65 114.83 40.12C115.71 39.53 116.48 38.77 117.24 38.04C118 37.31 118.82 36.61 119.58 35.87C119.94 35.52 119.57 34.94 119.1 35.05C117.23 35.5 116.11 37.28 114.61 38.34C113.92 38.83 113.16 39.26 112.32 39.4C111.93 39.47 111.55 39.49 111.16 39.46C110.77 39.43 110.36 39.44 110.01 39.21C109.66 38.98 109.3 39.48 109.58 39.77H109.59Z" fill="#0D0A07"/>
<path d="M109.71 40.23C111.52 39.81 113.23 39.06 114.61 37.79C115.31 37.15 115.92 36.39 116.31 35.52C116.73 34.57 117.04 33.54 117.19 32.52C117.23 32.26 116.88 32.05 116.73 32.32C116.27 33.15 115.93 34.04 115.44 34.86C114.99 35.61 114.48 36.33 113.84 36.94C112.63 38.09 111.07 38.9 109.48 39.37C108.93 39.53 109.16 40.36 109.72 40.23H109.71Z" fill="#0D0A07"/>
<path d="M109.73 39.0199C109.38 38.7599 108.83 38.6999 108.42 38.5699C107.98 38.4299 107.58 38.2299 107.18 37.9999C106.3 37.4899 105.69 36.7799 104.94 36.0999C103.58 34.8699 101.46 33.8799 99.6199 34.5399C99.1799 34.6999 99.2899 35.2599 99.7199 35.3099C100.67 35.4399 101.6 35.5399 102.45 36.0199C103.3 36.4999 103.89 37.2799 104.58 37.9799C105.27 38.6799 106.01 39.2399 106.88 39.6099C107.67 39.9399 108.9 40.3899 109.71 39.9399C110.1 39.7299 110.02 39.2299 109.71 38.9999L109.73 39.0199Z" fill="#0D0A07"/>
<path d="M114.91 39.95C128.27 33.4 143.59 33.8 158.09 34.04C162.15 34.11 166.23 34.14 170.28 33.74C174.06 33.37 177.78 32.59 181.4 31.42C185.02 30.25 188.21 28.84 191.45 27.19C194.17 25.8 196.83 24.33 199.22 22.42C201.86 20.31 204.27 17.89 206.46 15.32C208.43 13 210.35 10.48 211.45 7.60995C211.58 7.26995 211.03 7.04995 210.87 7.35995C209.59 9.81995 207.93 12.09 206.16 14.22C204.24 16.53 202.13 18.7 199.85 20.66C197.57 22.62 195.31 24.04 192.76 25.41C189.5 27.18 186.12 28.75 182.63 30C179.14 31.25 175.29 32.25 171.48 32.72C167.67 33.19 163.53 33.26 159.54 33.23C152.24 33.17 144.93 32.98 137.64 33.59C129.69 34.25 121.79 35.88 114.62 39.48C114.31 39.63 114.58 40.09 114.89 39.94L114.91 39.95Z" fill="#0D0A07"/>
<path d="M197.03 23.4601C198.31 15.4601 206.16 10.7701 211.4 5.43006C212.84 3.96006 214.21 2.38006 215.19 0.57006C215.41 0.16006 214.79 -0.19994 214.57 0.21006C212.7 3.63006 209.58 6.28006 206.71 8.85006C203.84 11.4201 200.96 13.9801 198.85 17.2101C197.64 19.0601 196.77 21.1101 196.45 23.3101C196.39 23.6901 196.97 23.8601 197.03 23.4701V23.4601Z" fill="#0D0A07"/>
<path d="M214.57 0.159971C214.06 1.20997 213.84 2.44997 213.54 3.56997C212.99 5.61997 212.46 7.66997 211.87 9.69997C211.24 11.85 210.57 14 209.73 16.08C209.06 17.74 208.28 19.39 206.9 20.58C204.17 22.94 200.67 23.64 197.16 23.26C196.8 23.22 196.74 23.79 197.08 23.88C199.99 24.68 203.34 23.96 205.89 22.41C207.75 21.28 208.98 19.82 209.91 17.88C211.86 13.81 212.92 9.28997 213.96 4.92997C214.19 3.97997 214.41 3.02997 214.64 2.08997C214.77 1.55997 214.9 0.939971 215.11 0.469971C215.27 0.119971 214.76 -0.190029 214.59 0.169971L214.57 0.159971Z" fill="#0D0A07"/>
<path d="M174.67 32.24C174.79 29.91 175.52 27.68 176.39 25.53C177.18 23.56 178.13 21.66 179.24 19.85C181.5 16.14 184.39 13.03 187.6 10.12C189.42 8.46997 191.25 6.84997 192.75 4.88997C192.94 4.64997 192.53 4.33997 192.32 4.55997C189.29 7.88997 185.61 10.55 182.61 13.9C179.61 17.25 177.47 20.77 175.84 24.72C174.85 27.11 174.06 29.64 173.97 32.23C173.95 32.68 174.65 32.68 174.67 32.23V32.24Z" fill="#0D0A07"/>
<path d="M191.88 4.90007C190.57 13.7301 186.34 22.0101 179.76 28.0701C178.81 28.9401 177.82 29.7701 176.78 30.5401C175.74 31.3101 174.7 31.8701 173.73 32.6301C173.37 32.9101 173.83 33.3601 174.18 33.2101C175.2 32.7601 176.15 32.0301 177.05 31.3801C177.95 30.7301 178.86 30.0001 179.72 29.2501C181.43 27.7601 183.01 26.1101 184.42 24.3301C187.23 20.7901 189.47 16.7701 190.89 12.4701C191.7 10.0401 192.2 7.53007 192.44 4.98007C192.47 4.65007 191.91 4.57007 191.86 4.90007H191.88Z" fill="#0D0A07"/>
<path d="M174.69 31.5899C175.92 30.2799 177.12 28.9799 178.22 27.5499C179.32 26.1199 180.37 24.6699 181.37 23.1799C182.31 21.7699 183.19 20.3099 184.11 18.8899C185.08 17.3899 186.18 16.0399 187.28 14.6499C187.42 14.4799 187.24 14.1599 187.02 14.3099C185.7 15.2599 184.73 16.6399 183.82 17.9699C182.85 19.3899 182 20.8899 181.07 22.3299C180.08 23.8599 179.05 25.3599 177.97 26.8199C176.89 28.2799 175.69 29.9099 174.49 31.3899C174.38 31.5299 174.56 31.7299 174.69 31.5899Z" fill="#0D0A07"/>
<path d="M180 31.7601C184.1 31.1701 188.3 32.0001 191.81 34.2201C195.32 36.4401 197.86 39.5501 201.63 41.0901C203.56 41.8801 205.81 42.2301 207.77 41.3701C208.12 41.2201 207.85 40.7401 207.53 40.7901C205.49 41.1401 203.51 40.8801 201.61 40.0501C199.71 39.2201 198.16 38.0101 196.6 36.7501C195.04 35.4901 193.51 34.1901 191.78 33.1801C190.05 32.1701 188.21 31.5301 186.29 31.1701C184.15 30.7801 181.99 30.7801 179.85 31.2201C179.5 31.2901 179.66 31.7901 179.99 31.7401L180 31.7601Z" fill="#0D0A07"/>
<path d="M181.35 31.8301C182.34 33.9101 183.27 36.0301 184.52 37.9801C185.67 39.7801 187.1 41.4301 188.77 42.7601C190.44 44.0901 192.24 44.9701 194.28 45.3001C196.61 45.6801 198.99 45.4001 201.27 44.8801C203.55 44.3601 206.14 43.5001 207.82 41.8101C208.16 41.4701 207.73 40.9001 207.31 41.1401C206.43 41.6501 205.59 42.2001 204.66 42.6101C203.73 43.0201 202.78 43.3401 201.81 43.6001C199.7 44.1601 197.45 44.5101 195.26 44.3301C191.06 43.9801 187.8 41.1201 185.45 37.8301C184.05 35.8701 182.86 33.7501 181.74 31.6101C181.61 31.3501 181.23 31.5801 181.35 31.8401V31.8301Z" fill="#0D0A07"/>
<path d="M181.42 31.4701C182.4 31.4701 183.37 32.3001 184.09 32.9001C184.74 33.4501 185.34 34.0601 185.91 34.6901C187.03 35.9301 188.03 37.2801 189.18 38.5001C191.29 40.7501 194.29 42.7701 197.51 41.8201C197.92 41.7001 197.74 41.1201 197.34 41.1901C193.8 41.7701 190.93 39.2801 188.73 36.8501C187.63 35.6401 186.59 34.3701 185.38 33.2701C184.37 32.3501 182.88 31.0301 181.43 31.1001C181.19 31.1101 181.19 31.4701 181.43 31.4801L181.42 31.4701Z" fill="#0D0A07"/>
<path d="M154.86 32.8499C156.46 31.3999 157.35 29.4299 158.14 27.4599C158.93 25.4899 159.81 23.4099 161.06 21.5699C163.46 18.0099 166.86 15.1199 170.72 13.2599C172.89 12.2099 175.25 11.5199 177.62 11.0599C177.91 10.9999 177.85 10.5099 177.55 10.5399C168.96 11.2799 161.37 17.7299 158.21 25.5799C157.23 28.0099 156.46 30.6399 154.48 32.4699C154.22 32.7099 154.61 33.0899 154.86 32.8499Z" fill="#0D0A07"/>
<path d="M154.36 33.2C163.56 32.1 171.59 26.28 175.56 17.91C176.62 15.68 177.51 13.22 177.8 10.75C177.85 10.35 177.21 10.28 177.11 10.66C176.57 12.81 176.03 14.91 175.1 16.94C174.17 18.97 173.07 20.78 171.72 22.48C169 25.91 165.44 28.64 161.43 30.4C159.13 31.41 156.74 32.14 154.26 32.53C153.88 32.59 153.96 33.26 154.35 33.21L154.36 33.2Z" fill="#0D0A07"/>
<path d="M154.12 33.1699C158.04 30.6999 161.63 27.7499 164.8 24.3699C166.36 22.7099 167.83 20.9799 169.36 19.2999C170.89 17.6199 172.6 16.0599 174.32 14.5199C174.56 14.2999 174.24 13.8699 173.96 14.0599C172.15 15.3099 170.6 16.9999 169.12 18.6099C167.64 20.2199 166.12 22.0199 164.57 23.6799C161.38 27.1099 157.76 30.1399 153.83 32.6899C153.53 32.8799 153.81 33.3699 154.11 33.1699H154.12Z" fill="#0D0A07"/>
<path d="M156.8 33.82C162.69 38.97 162.57 48.39 169.37 52.77C170.38 53.42 171.49 53.93 172.65 54.25C173.81 54.57 175.12 54.83 176.31 54.57C176.64 54.5 176.65 53.96 176.31 53.9C175.24 53.69 174.16 53.65 173.11 53.36C172.06 53.07 170.99 52.63 170.03 52.05C168.33 51.02 166.99 49.55 165.92 47.89C163.9 44.76 162.77 41.16 160.91 37.94C159.91 36.22 158.71 34.64 157.12 33.42C156.88 33.24 156.58 33.64 156.8 33.83V33.82Z" fill="#0D0A07"/>
<path d="M157.71 34.34C161.41 34.83 164.99 36.48 167.84 38.89C170.69 41.3 172.8 44.57 173.97 48.2C174.34 49.34 174.67 50.48 175.11 51.59C175.5 52.56 175.93 53.74 176.72 54.46C176.92 54.64 177.36 54.46 177.23 54.16C176.81 53.14 176.2 52.23 175.82 51.18C175.44 50.13 175.15 49.11 174.82 48.07C174.22 46.18 173.46 44.37 172.35 42.73C170.25 39.61 167.25 37.04 163.8 35.52C161.86 34.66 159.81 34.14 157.69 33.96C157.44 33.94 157.45 34.31 157.69 34.34H157.71Z" fill="#0D0A07"/>
<path d="M158.03 33.8701C161.67 35.9501 164.47 39.1001 166.7 42.6101C167.77 44.2901 168.63 46.0801 169.63 47.8001C170.49 49.2601 171.71 51.0101 173.46 51.4101C173.79 51.4801 173.98 51.0501 173.69 50.8701C172.84 50.3401 172.06 49.7901 171.41 49.0101C170.8 48.2701 170.31 47.4201 169.85 46.5901C168.89 44.8601 167.94 43.1401 166.82 41.5001C164.59 38.2501 161.8 35.2801 158.24 33.4901C157.98 33.3601 157.75 33.7401 158.01 33.8801L158.03 33.8701Z" fill="#0D0A07"/>
<path d="M131.48 34.43C132.91 30.73 135.3 27.4 138.34 24.84C141.63 22.08 145.63 20.53 149.68 19.27C150.88 18.89 152.1 18.55 153.31 18.21C154.52 17.87 155.75 17.62 156.89 17.13C157.18 17 157.04 16.48 156.72 16.52C155.62 16.64 154.56 16.98 153.5 17.27C152.32 17.6 151.15 17.93 149.98 18.29C147.75 18.98 145.54 19.74 143.41 20.71C139.72 22.38 136.52 25.03 134.12 28.28C132.76 30.12 131.71 32.14 130.96 34.3C130.85 34.62 131.35 34.75 131.47 34.44L131.48 34.43Z" fill="#0D0A07"/>
<path d="M131.08 34.3799C139.3 32.2699 147.59 28.8199 153.37 22.3599C154.11 21.5299 154.8 20.6699 155.44 19.7599C156.08 18.8499 156.78 17.9299 157.11 16.9099C157.2 16.6299 156.79 16.3699 156.6 16.6099C156.03 17.3399 155.62 18.2099 155.09 18.9799C154.52 19.8099 153.9 20.6099 153.23 21.3799C151.97 22.8299 150.56 24.1599 149.06 25.3499C145.75 27.9899 141.93 29.9699 137.99 31.5099C135.68 32.4099 133.33 33.2099 130.95 33.9199C130.66 34.0099 130.78 34.4499 131.08 34.3799Z" fill="#0D0A07"/>
<path d="M131.29 34.2901C134.33 31.5501 137.54 28.9901 140.89 26.6501C142.53 25.5001 144.21 24.4101 145.92 23.3601C146.78 22.8401 147.64 22.3301 148.51 21.8401C149.38 21.3501 150.36 20.8701 151.18 20.2401C151.37 20.1001 151.27 19.7401 151 19.8201C149.11 20.4301 147.34 21.6701 145.65 22.7001C143.88 23.7901 142.14 24.9301 140.44 26.1301C137.08 28.5001 133.89 31.1001 130.88 33.9001C130.62 34.1401 131.01 34.5201 131.26 34.2801L131.29 34.2901Z" fill="#0D0A07"/>
<path d="M127.06 35.6599C130.97 37.7499 133.63 41.3399 136.42 44.6599C137.79 46.2999 139.23 47.9199 140.92 49.2499C142.36 50.3899 143.97 51.3199 145.66 52.0499C147.48 52.8299 149.44 53.4199 151.43 53.1299C151.86 53.0699 151.76 52.3599 151.33 52.3699C149.59 52.4299 147.81 51.8899 146.22 51.2299C144.63 50.5699 142.92 49.6299 141.49 48.5299C138.12 45.9399 135.79 42.2999 132.82 39.3099C131.2 37.6799 129.4 36.2199 127.3 35.2699C127.04 35.1499 126.82 35.5199 127.07 35.6599H127.06Z" fill="#0D0A07"/>
<path d="M127.54 35.7199C131.94 35.8899 136.45 36.5599 140.42 38.5599C143.79 40.2499 146.75 42.8698 148.47 46.2698C149.53 48.3699 149.83 50.8198 151.12 52.7998C151.36 53.1698 151.87 52.8498 151.7 52.4598C150.79 50.4098 150.33 48.1998 149.41 46.1598C148.62 44.4098 147.47 42.8498 146.11 41.5098C143.14 38.5798 139.27 36.7998 135.22 35.9298C132.69 35.3898 130.12 35.1898 127.54 35.2098C127.2 35.2098 127.2 35.7198 127.54 35.7298V35.7199Z" fill="#0D0A07"/>
<path d="M127.93 35.6299C131.97 36.9299 135.8 38.8999 139.14 41.5399C140.8 42.8499 142.31 44.3299 143.79 45.8399C144.57 46.6399 145.35 47.4399 146.17 48.1999C146.92 48.8899 147.73 49.7699 148.66 50.1799C148.9 50.2799 149.09 50.0299 148.93 49.8299C148.25 48.9799 147.28 48.3099 146.5 47.5499C145.72 46.7899 144.92 45.9699 144.14 45.1699C142.61 43.6099 141.06 42.1099 139.32 40.7899C135.96 38.2299 132.13 36.2899 128.07 35.1199C127.74 35.0199 127.6 35.5299 127.93 35.6299Z" fill="#0D0A07"/>
<path d="M105.48 39.9798C99.3701 36.9098 92.5701 35.3698 85.8301 34.4398C79.0901 33.5098 71.6301 33.1798 64.5001 33.1598C56.3701 33.1398 48.1301 33.7198 40.1301 31.9698C36.1501 31.0998 32.2801 29.7398 28.5601 28.0698C26.7401 27.2498 24.9601 26.3598 23.2101 25.4198C21.7601 24.6398 20.3001 23.8398 18.9501 22.8998C16.3801 21.0898 14.0601 18.8998 11.9201 16.6098C9.78006 14.3198 7.78006 11.7898 6.09006 9.07984C5.74006 8.51984 5.40006 7.94984 5.10006 7.36984C4.94006 7.04984 4.38006 7.26984 4.52006 7.61984C5.59006 10.3998 7.43006 12.8498 9.33006 15.1098C11.4401 17.6198 13.7701 19.9698 16.3001 22.0598C18.8301 24.1498 21.7601 25.7898 24.7301 27.2998C28.3101 29.1198 32.0201 30.6898 35.8701 31.8398C39.7201 32.9898 43.9701 33.6998 48.1401 33.9498C52.3101 34.1998 56.6401 34.0698 60.8901 34.0098C68.0001 33.9098 75.1301 34.0298 82.2101 34.7398C89.2901 35.4498 96.3601 36.6898 102.9 39.4098C103.68 39.7298 104.45 40.0798 105.21 40.4598C105.52 40.6098 105.79 40.1498 105.48 39.9998V39.9798Z" fill="#0D0A07"/>
<path d="M19.55 23.2999C18.39 15.3199 10.72 10.5499 5.46004 5.28993C3.94004 3.74993 2.47004 2.10993 1.42004 0.199935C1.20004 -0.200065 0.580044 0.159935 0.800044 0.569935C2.59004 3.87993 5.56004 6.46993 8.34004 8.93993C11.12 11.4099 14.21 14.0699 16.4 17.2899C17.67 19.1599 18.62 21.2199 18.97 23.4599C19.03 23.8399 19.61 23.6799 19.55 23.2999Z" fill="#0D0A07"/>
<path d="M0.910056 0.459961C1.41006 1.56996 1.60006 2.99996 1.89006 4.20996C2.40006 6.35996 2.94006 8.50996 3.54006 10.64C4.14006 12.77 4.86006 15.08 5.80006 17.2C6.60006 19.02 7.57006 20.55 9.18006 21.76C11.8601 23.77 15.6701 24.78 18.9401 23.88C19.2701 23.79 19.2201 23.22 18.8601 23.26C15.7501 23.6 12.7201 23.12 10.0901 21.33C8.36006 20.16 7.39006 18.63 6.57006 16.75C4.82006 12.75 3.78006 8.44996 2.65006 4.24996C2.28006 2.90996 2.04006 1.40996 1.43006 0.159961C1.26006 -0.200039 0.750056 0.109961 0.910056 0.459961Z" fill="#0D0A07"/>
<path d="M42.0301 32.2399C41.8601 27.8699 39.8901 23.5099 37.7001 19.7999C35.5101 16.0899 32.5501 12.8099 29.2701 9.88985C27.3501 8.17985 25.4201 6.46985 23.6901 4.56985C23.4901 4.34985 23.0701 4.64985 23.2601 4.89985C25.8801 8.32985 29.5001 10.8199 32.4001 14.0099C35.3001 17.1999 37.5801 20.7599 39.2501 24.6599C40.2801 27.0699 41.1901 29.6099 41.3301 32.2499C41.3501 32.6999 42.0501 32.6999 42.0301 32.2499V32.2399Z" fill="#0D0A07"/>
<path d="M23.5401 4.97984C24.3901 14.0198 28.9501 22.5698 35.6301 28.6798C36.5401 29.5098 37.5001 30.2998 38.4801 31.0398C39.4601 31.7798 40.6201 32.6898 41.8101 33.2098C42.1501 33.3598 42.6101 32.9098 42.2601 32.6298C41.3901 31.9498 40.4101 31.4098 39.5201 30.7698C38.6301 30.1298 37.7701 29.4398 36.9401 28.7098C35.2801 27.2498 33.7501 25.6498 32.3601 23.9298C29.5501 20.4398 27.3801 16.4698 25.9201 12.2398C25.1001 9.85984 24.4901 7.39984 24.1201 4.89984C24.0701 4.57984 23.5101 4.64984 23.5401 4.97984Z" fill="#0D0A07"/>
<path d="M41.5101 31.3901C40.3101 29.9101 39.1601 28.3501 38.0301 26.8201C36.9001 25.2901 35.9201 23.8601 34.9301 22.3301C34.0001 20.8901 33.1501 19.3901 32.1801 17.9701C31.2701 16.6401 30.3001 15.2601 28.9801 14.3101C28.7701 14.1501 28.5801 14.4701 28.7201 14.6501C29.8001 16.0101 30.8801 17.3401 31.8301 18.8001C32.7801 20.2601 33.6601 21.7401 34.6301 23.1801C35.6001 24.6201 36.6701 26.1101 37.7601 27.5201C38.8501 28.9301 40.0701 30.2701 41.3201 31.6001C41.4501 31.7401 41.6401 31.5401 41.5201 31.4001L41.5101 31.3901Z" fill="#0D0A07"/>
<path d="M36.14 31.2299C32.38 30.4599 28.39 31.0399 24.96 32.7799C21.33 34.6199 18.69 37.9099 15.06 39.7399C12.98 40.7899 10.77 41.1899 8.47005 40.7899C8.15005 40.7299 7.87005 41.2099 8.23005 41.3699C11.8 42.9399 15.8 40.7099 18.59 38.5599C20.23 37.2899 21.76 35.8799 23.47 34.6999C25.18 33.5199 27 32.6499 28.98 32.1299C31.26 31.5299 33.67 31.4199 36.01 31.7599C36.35 31.8099 36.5 31.3099 36.15 31.2399L36.14 31.2299Z" fill="#0D0A07"/>
<path d="M34.26 31.6C32.38 35.18 30.3 39.07 27.09 41.64C25.55 42.88 23.72 43.82 21.77 44.18C19.54 44.59 17.2 44.29 15.01 43.79C13.91 43.54 12.83 43.21 11.79 42.79C10.69 42.34 9.71004 41.72 8.68004 41.13C8.26004 40.89 7.82004 41.45 8.17004 41.8C9.64004 43.27 11.83 44.1 13.79 44.64C16.06 45.26 18.5 45.65 20.86 45.41C25.12 44.97 28.49 42.19 30.92 38.81C32.46 36.66 33.51 34.21 34.64 31.83C34.76 31.57 34.39 31.35 34.25 31.6H34.26Z" fill="#0D0A07"/>
<path d="M34.5801 31.0901C33.1601 31.0201 31.7001 32.2901 30.7101 33.1901C29.4701 34.3101 28.4101 35.6101 27.2901 36.8401C25.0901 39.2701 22.2201 41.7601 18.6801 41.1801C18.2701 41.1101 18.0901 41.6901 18.5101 41.8101C21.7301 42.7601 24.7301 40.7401 26.8401 38.4901C27.9901 37.2701 28.9901 35.9201 30.1101 34.6801C30.6801 34.0501 31.2801 33.4401 31.9301 32.8901C32.6401 32.2901 33.6201 31.4601 34.6001 31.4601C34.8401 31.4601 34.8401 31.1001 34.6001 31.0801L34.5801 31.0901Z" fill="#0D0A07"/>
<path d="M61.52 32.4699C59.77 30.8399 58.96 28.5699 58.11 26.3899C57.32 24.3499 56.38 22.4099 55.12 20.6199C52.63 17.0999 49.23 14.2699 45.33 12.4499C43.14 11.4299 40.86 10.7499 38.45 10.5399C38.15 10.5099 38.08 11.0099 38.38 11.0599C42.62 11.8799 46.64 13.5299 50.01 16.2499C53.38 18.9699 55.9 22.5499 57.53 26.6399C58.42 28.8799 59.3 31.1899 61.13 32.8399C61.39 33.0699 61.77 32.6999 61.51 32.4599L61.52 32.4699Z" fill="#0D0A07"/>
<path d="M61.73 32.5201C52.97 31.1601 45.18 25.6301 41.25 17.6701C40.14 15.4201 39.5 13.0801 38.89 10.6601C38.8 10.2901 38.16 10.3501 38.2 10.7501C38.46 12.9501 39.21 15.1401 40.1 17.1701C40.99 19.2001 42.17 21.1901 43.55 22.9801C46.36 26.6101 50.07 29.4701 54.28 31.2901C56.62 32.3001 59.11 32.9101 61.63 33.2101C62.01 33.2601 62.11 32.5901 61.72 32.5301L61.73 32.5201Z" fill="#0D0A07"/>
<path d="M62.1601 32.6899C58.2301 30.1399 54.6101 27.1099 51.4201 23.6799C49.8701 22.0199 48.4101 20.2799 46.8701 18.6099C45.3301 16.9399 43.8401 15.3099 42.0301 14.0599C41.7601 13.8699 41.4301 14.2999 41.6701 14.5199C43.3601 16.0399 45.0201 17.5399 46.5601 19.2199C48.1001 20.8999 49.6101 22.6899 51.1901 24.3699C54.3701 27.7499 57.9501 30.6999 61.8701 33.1699C62.1801 33.3599 62.4501 32.8799 62.1501 32.6899H62.1601Z" fill="#0D0A07"/>
<path d="M58.88 33.4099C52.84 38.0399 52.9 47.1999 46.65 51.5999C45.65 52.3099 44.55 52.8399 43.38 53.2099C42.21 53.5799 40.92 53.6499 39.69 53.8899C39.35 53.9599 39.36 54.4899 39.69 54.5599C41.73 55.0099 44.16 54.1599 45.93 53.1799C47.7 52.1999 49.13 50.8099 50.29 49.1799C52.52 46.0399 53.63 42.2899 55.39 38.8899C56.37 36.9899 57.58 35.2299 59.2 33.8099C59.42 33.6199 59.12 33.2199 58.88 33.3999V33.4099Z" fill="#0D0A07"/>
<path d="M58.2901 33.95C50.6601 34.62 43.9501 39.9399 41.4601 47.1699C41.0501 48.3699 40.7201 49.5899 40.3101 50.7799C40.1101 51.3699 39.8801 51.96 39.6101 52.52C39.3401 53.08 38.9901 53.59 38.7601 54.16C38.6301 54.4599 39.0701 54.6399 39.2701 54.4599C39.9701 53.83 40.3701 52.83 40.7201 51.9799C41.1301 51.01 41.4501 50.0099 41.7601 49.0099C42.3501 47.1199 43.0301 45.3199 44.0701 43.6199C46.0101 40.4399 48.8701 37.92 52.1801 36.25C54.0901 35.29 56.1601 34.62 58.2801 34.34C58.5201 34.31 58.5301 33.9299 58.2801 33.9599L58.2901 33.95Z" fill="#0D0A07"/>
<path d="M57.7401 33.4801C54.1801 35.2801 51.3901 38.2401 49.1601 41.4901C48.0401 43.1201 47.1001 44.8501 46.1301 46.5801C45.6601 47.4201 45.1801 48.2601 44.5701 49.0001C43.9301 49.7801 43.1501 50.3301 42.2901 50.8601C42.0001 51.0401 42.1901 51.4801 42.5201 51.4001C44.2701 51.0001 45.5001 49.2501 46.3501 47.7901C47.3601 46.0701 48.2101 44.2801 49.2801 42.6001C51.5101 39.0901 54.3201 35.9401 57.9501 33.8601C58.2101 33.7101 57.9801 33.3401 57.7201 33.4701L57.7401 33.4801Z" fill="#0D0A07"/>
<path d="M85.02 34.29C83.68 30.45 81.33 27.04 78.26 24.37C74.96 21.5 70.98 19.87 66.85 18.56C65.58 18.15 64.29 17.78 63 17.42C61.71 17.06 60.52 16.66 59.25 16.52C58.93 16.48 58.79 17 59.08 17.13C60.06 17.55 61.11 17.79 62.13 18.07C63.24 18.37 64.34 18.68 65.44 19.01C67.61 19.66 69.77 20.39 71.85 21.3C75.52 22.91 78.74 25.36 81.19 28.55C82.56 30.34 83.69 32.33 84.5 34.43C84.62 34.74 85.12 34.61 85.01 34.29H85.02Z" fill="#0D0A07"/>
<path d="M85.0401 33.9199C77.0501 31.5199 69.0601 28.2199 63.3001 21.9699C62.5201 21.1299 61.8001 20.2399 61.1401 19.2999C60.5201 18.4299 60.0601 17.4399 59.4001 16.5999C59.2101 16.3599 58.8001 16.6199 58.8901 16.8999C59.1801 17.7999 59.8001 18.6399 60.3301 19.4199C60.8601 20.1999 61.4701 20.9999 62.1001 21.7399C63.4101 23.2899 64.8801 24.6899 66.4801 25.9399C69.8401 28.5799 73.6401 30.5599 77.6201 32.0899C80.0101 33.0099 82.4501 33.7299 84.93 34.3599C85.23 34.4399 85.3501 33.9899 85.0601 33.8999L85.0401 33.9199Z" fill="#0D0A07"/>
<path d="M85.0901 33.9099C82.0801 31.1099 78.8901 28.5099 75.5301 26.1399C73.8301 24.9399 72.0901 23.7999 70.3201 22.7099C68.5501 21.6199 66.8601 20.4399 64.9701 19.8299C64.7001 19.7399 64.6101 20.0999 64.7901 20.2499C65.6101 20.8799 66.5601 21.3399 67.4601 21.8499C68.3001 22.3299 69.1301 22.8099 69.9601 23.3099C71.7101 24.3699 73.4201 25.4799 75.0901 26.6499C78.4401 28.9899 81.6501 31.5499 84.6901 34.2899C84.9501 34.5199 85.3301 34.1499 85.0701 33.9099H85.0901Z" fill="#0D0A07"/>
<path d="M88.7201 35.2799C84.9001 36.9999 82.2201 40.3099 79.5801 43.4199C78.2101 45.0299 76.8101 46.6299 75.1901 47.9999C73.8001 49.1799 72.2201 50.1299 70.5701 50.8999C68.7701 51.7399 66.7001 52.4499 64.6801 52.3799C64.2601 52.3599 64.1401 53.0699 64.5801 53.1399C66.3401 53.3999 68.0701 52.9799 69.7001 52.3299C71.4401 51.6399 73.1001 50.7399 74.6101 49.6299C78.0601 47.0799 80.4201 43.4299 83.2901 40.2999C84.9501 38.4899 86.7701 36.8299 88.9501 35.6699C89.2101 35.5299 88.9801 35.1699 88.7201 35.2799Z" fill="#0D0A07"/>
<path d="M88.46 35.1999C80.32 35.1499 70.96 37.6899 66.92 45.4699C65.77 47.6899 65.3 50.1799 64.29 52.4599C64.12 52.8499 64.63 53.1699 64.87 52.7999C66.02 51.0299 66.36 48.8699 67.2 46.9599C67.96 45.2199 69.08 43.6399 70.4 42.2899C73.26 39.3699 77.04 37.5699 80.98 36.6499C83.43 36.0799 85.95 35.8199 88.46 35.7199C88.8 35.7099 88.8 35.1999 88.46 35.1999Z" fill="#0D0A07"/>
<path d="M87.9201 35.1098C83.8601 36.2798 80.0401 38.2298 76.6701 40.7798C74.9601 42.0798 73.4301 43.5498 71.9301 45.0798C71.1501 45.8798 70.3701 46.6698 69.5701 47.4598C69.1701 47.8498 68.7701 48.2398 68.3601 48.6098C67.9301 48.9998 67.4301 49.3598 67.0601 49.8198C66.9001 50.0198 67.0901 50.2798 67.3301 50.1698C68.2601 49.7498 69.0801 48.8698 69.8201 48.1898C70.6401 47.4298 71.4201 46.6298 72.2001 45.8298C73.6801 44.3198 75.1901 42.8498 76.8501 41.5298C80.1901 38.8898 84.0101 36.9198 88.0601 35.6198C88.3801 35.5198 88.2501 35.0098 87.9201 35.1098Z" fill="#0D0A07"/>
</g>
<defs>
<clipPath id="clip0_10011_2">
<rect width="214.76" height="54.8" fill="white" transform="translate(0.619995)"/>
</clipPath>
</defs>
</svg>
